<svg id="Broken_Lines" viewBox="0 0 100 100" xmlns="http://www.w3.org/2000/svg" data-name="Broken Lines"><g id="Library"><g id="outline"><path d="m50 53.28a5 5 0 0 1 -1.83-.35l-44.73-17.75a5.64 5.64 0 0 1 -3.44-5.35 5.63 5.63 0 0 1 3.43-5.34l44.75-17.76a5 5 0 0 1 3.65 0l44.73 17.76a5.63 5.63 0 0 1 3.44 5.34 5.64 5.64 0 0 1 -3.44 5.35l-44.74 17.75a5 5 0 0 1 -1.82.35zm-42.26-23.44 42.26 16.76 42.25-16.77-42.25-16.76z" fill= "#ffc800"/><path d="m50 93.62a4.85 4.85 0 0 1 -1.83-.36l-44.73-17.75a5.88 5.88 0 0 1 0-10.69 3.28 3.28 0 0 1 3.74 5.18l42.82 16.93 42.25-16.76-17.73-7a3.28 3.28 0 1 1 2.42-6.17l19.62 7.78a5.87 5.87 0 0 1 0 10.69l-44.74 17.8a5 5 0 0 1 -1.82.35z" fill= "#ffc800"/><path d="m50 73.45a4.85 4.85 0 0 1 -1.83-.36l-44.73-17.74a5.88 5.88 0 0 1 0-10.69l19.63-7.79a3.28 3.28 0 1 1 2.41 6.13l-17.74 7 42.26 16.76 42.82-17a3.27 3.27 0 0 1 3.74-5.12 5.86 5.86 0 0 1 0 10.68l-44.74 17.78a5 5 0 0 1 -1.82.35z" fill= "#ffc800"/></g></g></svg>