<svg enable-background="new 0 0 24 24" height="24px" viewBox="0 0 24 24" width="24px" xmlns="http://www.w3.org/2000/svg"><path fill="white" d="m5 0h-4c-.552 0-1 .448-1 1v4c0 .552.448 1 1 1h4c.552 0 1-.448 1-1v-4c0-.552-.448-1-1-1z"/><path fill="white" d="m23 0h-14c-.552 0-1 .448-1 1v4c0 .552.448 1 1 1h14c.552 0 1-.448 1-1v-4c0-.552-.448-1-1-1z"/><path fill="white" d="m5 9h-4c-.552 0-1 .448-1 1v4c0 .552.448 1 1 1h4c.552 0 1-.448 1-1v-4c0-.552-.448-1-1-1z"/><path fill="white" d="m23 9h-14c-.552 0-1 .448-1 1v4c0 .552.448 1 1 1h14c.552 0 1-.448 1-1v-4c0-.552-.448-1-1-1z"/><path fill="white" d="m5 18h-4c-.552 0-1 .448-1 1v4c0 .552.448 1 1 1h4c.552 0 1-.448 1-1v-4c0-.552-.448-1-1-1z"/><path fill="white" d="m23 18h-14c-.552 0-1 .448-1 1v4c0 .552.448 1 1 1h14c.552 0 1-.448 1-1v-4c0-.552-.448-1-1-1z"/></svg>